/* XPM */
static char *d029155cfd3a4295f9411d940a28d03exoC9PyMEYwkhSE34[] = {
/* columns rows colors chars-per-pixel */
"16 16 161 2 ",
"   c None",
".  c #EE1E3F",
"X  c #EA263E",
"o  c #EA2F3F",
"O  c #EC3E3E",
"+  c #E71843",
"@  c #E71944",
"#  c #E71B44",
"$  c #E81F44",
"%  c #F81F48",
"&  c #FA1F49",
"*  c #E92342",
"=  c #E92543",
"-  c #E82046",
";  c #EC2445",
":  c #EF2847",
">  c #EE2948",
",  c #FA2049",
"<  c #EB3047",
"1  c #EB3645",
"2  c #EB3841",
"3  c #EB3847",
"4  c #EB324A",
"5  c #ED3E48",
"6  c #F4304A",
"7  c #F7324A",
"8  c #F4394B",
"9  c #F73C4B",
"0  c #EC3D54",
"q  c #ED4D46",
"w  c #ED4C47",
"e  c #EC4148",
"r  c #EC434B",
"t  c #ED474A",
"y  c #ED484A",
"u  c #ED4A4A",
"i  c #ED4B4B",
"p  c #EC484F",
"a  c #F1434A",
"s  c #EF5C44",
"d  c #EE574B",
"f  c #EE534C",
"g  c #EE564D",
"h  c #EF5A4B",
"j  c #EE594D",
"k  c #EF5B4C",
"l  c #F4514C",
"z  c #F2544D",
"x  c #FF5D51",
"c  c #EF614B",
"v  c #EF604D",
"b  c #EF634D",
"n  c #EF614E",
"m  c #F06044",
"M  c #F0604D",
"N  c #F0664F",
"B  c #F16C48",
"V  c #F0694E",
"C  c #F27C46",
"Z  c #F1714F",
"A  c #F2794E",
"S  c #FF6354",
"D  c #F07150",
"F  c #F17452",
"G  c #F17652",
"H  c #FF7150",
"J  c #FF7054",
"K  c #F27A50",
"L  c #F27E55",
"P  c #EC5063",
"I  c #EF6264",
"U  c #F07266",
"Y  c #EF6672",
"T  c #F38749",
"R  c #F3874B",
"E  c #F48E49",
"W  c #F5974C",
"Q  c #F69F4B",
"!  c #F38353",
"~  c #FA8750",
"^  c #FF8452",
"/  c #FF8256",
"(  c #FC8754",
")  c #F38A53",
"_  c #F48C51",
"`  c #F58C54",
"'  c #F38B5D",
"]  c #F49250",
"[  c #F49055",
"{  c #F49056",
"}  c #F49454",
"|  c #F59755",
" . c #F59C52",
".. c #F69855",
"X. c #F59856",
"o. c #F69F56",
"O. c #F7A757",
"+. c #FAA655",
"@. c #F7AD57",
"#. c #F6A058",
"$. c #F6A758",
"%. c #FAA058",
"&. c #FEA559",
"*. c #F6A858",
"=. c #F7AF58",
"-. c #F7AF5A",
";. c #F7AA5E",
":. c #FEAD5A",
">. c #F7B059",
",. c #F8B65A",
"<. c #FFB45A",
"1. c #FFB65B",
"2. c #F8B85A",
"3. c #F8BE5B",
"4. c #F8BF5B",
"5. c #F38A62",
"6. c #F38C6C",
"7. c #F28A73",
"8. c #F1857C",
"9. c #F49D75",
"0. c #F3947A",
"q. c #F5A167",
"w. c #F6A666",
"e. c #FFC45F",
"r. c #FFC560",
"t. c #FFC761",
"y. c #F17A80",
"u. c #F07D88",
"i. c #F38E80",
"p. c #F49784",
"a. c #F6AA84",
"s. c #F8BF8F",
"d. c #F4A09E",
"f. c #F7B994",
"g. c #F4A1A0",
"h. c #F5ABA9",
"j. c #F5B1A6",
"k. c #F6B7A8",
"l. c #F7BBA8",
"z. c #F7BFAC",
"x. c #F8C2B8",
"c. c #F9CBB9",
"v. c #F7BDC0",
"b. c #F9D9C3",
"n. c #FADBC4",
"m. c #FAD7CF",
"M. c #FBE4E2",
"N. c #FAE3E5",
"B. c #FCEAE2",
"V. c #FCE9E9",
"C. c #FCEDEB",
"Z. c #FDF3F2",
"A. c #FDF4F1",
"S. c #FDF7F5",
"D. c #FDF8F6",
"F. c #FEF9F8",
"G. c #FDF9FA",
"H. c #FEFCFA",
"J. c #FDFEFF",
"K. c #FEFFFF",
"L. c white",
/* pixels */
"                                ",
"          { X.&.:.>.2.          ",
"      G ^ ~ { X.o.O.1.r.3.      ",
"    N H 6.5.C T | #.$.=.t.3.    ",
"  g S s p.D.c.a._ E  .$.>.e.    ",
"  i z h c m.L.z.9.f.q.W Q 1.,.  ",
"  a i f h b 7.l.A.L.H.n.s.;.@.  ",
"  9 e i q U C.L.L.S.B.L.b.w.+.  ",
"  7 1 r O h.L.F.x.0.L ' R ] %.  ",
"  ; 4 1 p V.Z.8.j.k.B A ! ` |   ",
"  - > X Y L.g.d.L.i.m G K ( )   ",
"  # & * 0 N.y.H.M.d b b Z /     ",
"    + , = P u.v.I w g b J D     ",
"      + & . 4 o 2 i l x b       ",
"        @ - ; 6 8 5 t           ",
"                                "
};
