/* XPM */
static char *adaee253ffb04c57d6ef1353190fa046lYa2XsxgERyhZRlV[] = {
/* columns rows colors chars-per-pixel */
"64 64 229 2 ",
"   c None",
".  c #EA243D",
"X  c #EB2C3D",
"o  c #E81643",
"O  c #E61845",
"+  c #E71F47",
"@  c #EA1943",
"#  c #E91A43",
"$  c #E91F44",
"%  c #EC1D44",
"&  c #E61E49",
"*  c #F21746",
"=  c #F71847",
"-  c #EA2344",
";  c #E92046",
":  c #E92346",
">  c #EA2546",
",  c #EA2845",
"<  c #EB2A46",
"1  c #EA2B46",
"2  c #EB2D46",
"3  c #E62149",
"4  c #ED2848",
"5  c #F42047",
"6  c #FA284A",
"7  c #EB3342",
"8  c #EB3047",
"9  c #EB3147",
"0  c #EC3746",
"q  c #ED3A40",
"w  c #EB3847",
"e  c #EB3348",
"r  c #EC3548",
"t  c #EC3648",
"y  c #E9374C",
"u  c #EC3B48",
"i  c #EB3E4A",
"p  c #EC3D48",
"a  c #EC3E48",
"s  c #FB304B",
"d  c #F2384B",
"f  c #F43E4A",
"g  c #F9384C",
"h  c #ED4142",
"j  c #EE4942",
"k  c #ED4049",
"l  c #ED4149",
"z  c #ED434A",
"x  c #ED4449",
"c  c #ED4649",
"v  c #EB444C",
"b  c #EE484A",
"n  c #EE4B4A",
"m  c #EE4E4A",
"M  c #EE4F4B",
"N  c #EB484D",
"B  c #EB4A4F",
"V  c #ED494C",
"C  c #FA444D",
"Z  c #F4484B",
"A  c #FD4E4E",
"S  c #EE5244",
"D  c #EE524B",
"F  c #EF544A",
"G  c #EE504C",
"H  c #EE554C",
"J  c #EF574C",
"K  c #EF584C",
"L  c #EF594C",
"P  c #EF5A4C",
"I  c #EE594E",
"U  c #F05A46",
"Y  c #F1524E",
"T  c #F2584C",
"R  c #F05C4D",
"E  c #F05F4E",
"W  c #F55E4D",
"Q  c #EC4C57",
"!  c #ED5851",
"~  c #EE5855",
"^  c #FD5750",
"/  c #FF5E51",
"(  c #F06146",
")  c #F16747",
"_  c #F26E47",
"`  c #F0614E",
"'  c #F0644E",
"]  c #F1674F",
"[  c #F0694A",
"{  c #F0694E",
"}  c #F1694E",
"|  c #F16C4F",
" . c #F37647",
".. c #F2714B",
"X. c #F37C49",
"o. c #EE6753",
"O. c #EF6A51",
"+. c #FE6652",
"@. c #F06B51",
"#. c #F16F50",
"$. c #FC6D51",
"%. c #F06658",
"&. c #F06E5A",
"*. c #F27250",
"=. c #F27550",
"-. c #FE7754",
";. c #F27851",
":. c #F27B51",
">. c #F37E51",
",. c #F37F51",
"<. c #F17C53",
"1. c #F37D52",
"2. c #F07855",
"3. c #EC5463",
"4. c #EE6061",
"5. c #F17A64",
"6. c #EF6E71",
"7. c #F07F72",
"8. c #F4834A",
"9. c #F4884A",
"0. c #F48D4B",
"q. c #F5934D",
"w. c #F69A4E",
"e. c #F38152",
"r. c #F48352",
"t. c #F38653",
"y. c #F48652",
"u. c #F48653",
"i. c #F38454",
"p. c #FC8055",
"a. c #F48953",
"s. c #F48C53",
"d. c #F58E53",
"f. c #F38955",
"g. c #FF8957",
"h. c #F08158",
"j. c #F48A59",
"k. c #F59054",
"l. c #F49356",
"z. c #F59257",
"x. c #F59455",
"c. c #F59756",
"v. c #F69955",
"b. c #F69B56",
"n. c #F69C55",
"m. c #F69E56",
"M. c #F49558",
"N. c #F49658",
"B. c #F4975E",
"V. c #FF9258",
"C. c #F39959",
"Z. c #F49C59",
"A. c #FF9C59",
"S. c #F6A057",
"D. c #F7A357",
"F. c #F7A657",
"G. c #F6A757",
"H. c #F9A357",
"J. c #F7A957",
"K. c #F5A059",
"L. c #FFA25A",
"P. c #F7AC59",
"I. c #F8AB58",
"U. c #F8AD59",
"Y. c #FDAF5B",
"T. c #F6B35C",
"R. c #F8B058",
"E. c #F8B059",
"W. c #F8B159",
"Q. c #F8B35A",
"!. c #F8B659",
"~. c #F9B859",
"^. c #F9BA5B",
"/. c #F9BC5A",
"(. c #FFBA5C",
"). c #F8BC5C",
"_. c #F8BD5D",
"`. c #F8BF5F",
"'. c #F28765",
"]. c #F1826D",
"[. c #F28E6D",
"{. c #F49A6C",
"}. c #F29078",
"|. c #F49C7E",
" X c #F4A763",
".X c #F5A56D",
"XX c #F6B17E",
"oX c #F9C05B",
"OX c #F8C05F",
"+X c #FFC15E",
"@X c #FFC85F",
"#X c #F8C060",
"$X c #FFCD61",
"%X c #F07D84",
"&X c #F18C8D",
"*X c #F3988B",
"=X c #F2969A",
"-X c #F4A687",
";X c #F4AF93",
":X c #F5AE9B",
">X c #F5B894",
",X c #F5BC9E",
"<X c #F3AAA5",
"1X c #F3ABAF",
"2X c #F5B8AB",
"3X c #F5B8B6",
"4X c #F7C59B",
"5X c #F6C0A3",
"6X c #F7CDAC",
"7X c #F6C3B2",
"8X c #F6C9C0",
"9X c #F8D8C4",
"0X c #F7D1CF",
"qX c #F8D9D1",
"wX c #F8D8D9",
"eX c #F9E4D7",
"rX c #F9E6E1",
"tX c #FAEDE7",
"yX c #FAF1EF",
"uX c #FAF5F3",
"iX c #FBF8F6",
"pX c #FDFBFB",
"aX c #FEFDFD",
"sX c #FFFDFD",
"dX c #FCFFFF",
"fX c #FDFFFF",
"gX c #FFFFFE",
"hX c #FEFFFF",
"jX c white",
/* pixels */
"                                                                                                                                ",
"                                                                                                                                ",
"                                                                                                                                ",
"                                                  N.C.K.U.D.I.W.Y.E.E.P.T.OX                                                    ",
"                                            N.l.A.L.L.L.H.D.D.J.J.U.U.W.(.+X+X(._.OX                                            ",
"                                        k.A.A.v.x.v.v.m.m.S.D.D.D.H.I.U.E.E.E.E.(.@X+X_.                                        ",
"                                    f.V.k.s.k.x.x.x.v.v.m.m.S.D.J.D.J.J.U.E.E.!.Q.Q.~.+X@X_.                                    ",
"                                <.g.a.a.f.s.s.d.x.x.x.C.v.v.m.S.D.D.D.J.J.U.E.E.Q.Q.~././.+X@XoX                                ",
"                            h.p.-.e.i.r.y.a.a.d.k.x.l.v.v.v.m.m.S.S.D.D.J.J.U.U.W.W.Q.Q.~././.@XoX                              ",
"                          2.p.:.,.1.i.e.i.u.a.d.s.k.k.x.l.x.v.m.S.S.D.D.D.J.J.U.W.W.Q.Q.~.~././.+X$X#X                          ",
"                        <.-.:.=.:.:.1.,.i.r.y.a.s.s.k.k.x.x.x.v.n.m.S.D.D.J.J.J.J.R.W.Q.Q.Q.Q./././.$XOX                        ",
"                      @.-.*.=.=.:.:.:.,.<.r.r.y.a.s.s.k.k.x.l.v.v.m.S.S.D.S.J.J.J.U.U.W.W.Q.~.~././.oX$XOX                      ",
"                    O.$.} ..*.*.=.:.:.:.X.r.e.y.t.a.d.s.k.k.x.x.v.v.m.m.m.S.D.D.J.J.U.U.U.Q.Q.Q.~././.OX@XOX                    ",
"                  O.$.} @.| @.*.=.=._ :.1.<.e.e.e.y.a.a.s.k.k.x.x.x.v.v.m.S.D.D.G.J.J.J.W.W.W.W.~.Q././.OX$X#X                  ",
"                o.+.} ] } } @.*.@.:.[.=._ :.r.e.e.i.t.a.a.s.k.k.x.x.v.v.m.n.S.S.D.J.D.J.J.U.R.W.Q.Q.!.~././.@X                  ",
"                +.` ' ' } } @.*.} 5.uXeX;X'. . .<.i.i.y.a.a.s.d.k.x.l.v.v.v.n.m.n.D.J.J.J.U.U.R.Q.Q.~.~././.+XoX                ",
"              I ` ` ` ' ' ' } } *.) 8XjXjXuX7X*X<. .X.i.i.f.a.s.d.k.x.x.l.v.m.m.n.m.D.D.J.J.U.P.W.W.Q.Q.~././.@XoX              ",
"            o./ I P W ` ` ' @.' } ) }.jXjXjXjXjXeX,X[.X.X.i.a.s.s.d.k.x.l.v.l.v.n.D.S.D.D.J.J.J.U.W.W.Q.Q.~.~./.@X              ",
"            H H I K K ` ` ` ' } } | [ qXjXjXjXpXjXjXpX9X-Xj.X.8.a.s.k.k.k.x.v.v.n.n.S.S.D.D.J.J.J.U.W.W.Q.~.~.~.+X_.            ",
"          ! ^ I F K K K ` ` ` ' @.} ( *XdXpXjXjXjXpXjXjXjXtX7X{.8.t.s.k.k.x.x.x.v.v.n.S.S.D.D.J.J.J.U.W.W.Q.~.~./.@X            ",
"          M G D H H H K P ` ` ` ' ' { #.eXjXjXjXjXpXjXjXjXjXjXdXeX{.y.d.k.k.x.x.v.v.v.m.m.S.D.D.J.J.J.U.W.W.Q.Q.!.+X_.          ",
"        B A M G M H H I I P P ` ` ' { ( :XdXpXpXpXjXjXpXjXjXjXrX>Xf.a.a.8.9.9.d.l.l.l.v.n.m.S.D.G.G.J.J.U.W.W.Q.!.!.+X          ",
"        v Z n M D D H H T K P ` ` ` ' ' &.tXjXjXjXpXpXjXdXtX;Xe.X.e.X.a.>X9X5X{.0.0.v.v.v.n.m.S.D.D.J.J.J.U.W.W.!.!.+XOX        ",
"        Z c c n M G H H F K K K ` P ` ' ( ].0XjXjXjXjXtX:X:. .<.X.e.;XrXdXjXdXiX9XXXv.0.q.m.m.m.n.D.D.J.J.J.U.U.E.E.(._.        ",
"      B C l c c n M M M D Y K K P ` ` ` ' ( ( ].2XqX:X:._ ....:.-XeXdXjXpXpXpXjXjXjXtX6X.Xq.q.v.S.S.D.D.J.J.J.U.E.E.E.(.        ",
"      B C l c c n n M M G H F K I P P W ` ' } ( ( [ ) @._ ..-XeXjXjXjXpXjXjXpXjXpXpXjXjXpXqX>XS.q.w.S.D.D.D.J.J.I.E.E.+X        ",
"      i f l l c c c n M M G D F K K I P o.` ' { | | ) [ |.qXdXjXpXjXjXjXjXjXjXjXjXjXpXpXjXjXdXyX6XXXn.w.S.D.D.U.J.I.E.(.OX      ",
"      u u p l l c c c n M G G D F I P P P P ` ' ( ( }.qXjXjXpXjXjXjXpXjXpXjXjXpXjXpXjXjXjXjXpXjXjXjXeX4X Xn.D.J.J.J.U.(.T.      ",
"      g t i p l l c c c M M M M F H H H I P ` U ].0XjXjXpXjXpXjXpXjXjXjXjXjXjXjXjXdXpXjXjXpXjXpXpXjXjXjXjX6Xw.D.F.F.I.I.P.      ",
"      g 0 u u p l l c Z c n n M G G H H K W U 5.iXjXjXpXjXjXpXjXpXjXdXjXjXpXjXpXpXjXjXpXjXjXjXjXpXjXjXiX9XXXm.S.K.F.F.I.U.      ",
"      g t 0 t u i i x k c n n n D M D H K P S 3XjXpXjXjXpXjXjXjXjXjXjXpXjXjXpXjXpXpXjXjXpXjXjXdXdXyX6X.Xq.w.m.S.S.D.F.F.W.      ",
"    y s 8 t u 0 u i k k l c c n n M G D H F %.tXjXjXpXjXjXjXpXjXpXjXjXpXjXjXjXiX7X|.2XtXdXjXjXeX,XB.0.q.x.v.m.m.S.S.F.F.Y.      ",
"    y s 2 e e w w u p k l l c Z n n M M F j *XdXpXjXjXjXpXjXjXpXjXjXjXjXdXuX7X'. . . .i.-X2X-Xa.8.d.k.N.x.x.v.v.m.m.S.D.E.      ",
"      s e e e y 0 w p p l k c c c n n M G n 0XjXjXjXjXpXjXjXjXdXjXjXjXpX7X'._ =.:.1.1.,.X.X.8.u.d.a.d.k.x.x.C.v.v.m.S.S.I.      ",
"      s 1 2 2 w 0 0 w u a i k l c c n M j 6.pXjXpXjXjXjXjXdXjXjXjXdX8X].) ......1.;.:.:.r.u.u.i.a.a.d.d.k.x.x.v.v.m.v.m.H.      ",
"      6 1 2 2 7 e w w w u p k i l l c n h <XjXpXjXpXpXjXjXpXjXdX7X].( { { [ [.}._ ;.;.:.,.X.i.i.u.a.a.a.d.k.x.x.x.v.v.m.C.      ",
"      4 < < < 2 2 w e t w u i i l c c c G rXjXdXjXjXjXpXjXdX8X7.U ( ' ( 5.7XdX-X) ;.;.;.2.1.<.r.i.y.a.a.d.d.k.x.x.v.v.A.K.      ",
"      3 > < < 1 2 2 e t 0 w u u p l l q %XdXjXjXpXjXjXjX0X].S U P U 5.2XuXjXtX@.*.*.;.;.:.X.,.<.e.i.y.y.a.a.d.k.x.x.x.L.Z.      ",
"      $ 5 : > < 1 2 e e e t w u p p l q 7XjXjXjXjXjXjXqXS S K S &.2XuXjXjXjX2X( @.*.*.;.:.;.:.:.e.,.i.y.a.a.d.d.k.x.x.L.N.      ",
"      & 6 : < < 1 2 2 2 e e t w p p q 3.iXjXpXpXjXpXdX&Xj K P <XyXdXjXpXjXjX].) @...@.*.*.;.:.<.<.r.r.i.y.y.a.a.d.k.x.A.        ",
"        5 - > > , , < 2 8 8 e e u p X =XjXpXjXjXpXjXtX~ D j 3XjXjXpXjXpXjX0X( { { @.*.@.*.=.=.=.:.1.,.r.i.y.y.u.s.d.k.k.        ",
"        3 % $ > > , , 2 2 8 e e w w 0 wXjXpXjXjXjXjX1Xh F 3.iXjXjXjXjXjXdX*XU ' { { @...*.=.=.=.=.:.,.,.r.r.y.y.f.i.V.C.        ",
"        3 5 ; ; ; > , , 2 2 7 w e 7 Q uXjXpXpXjXdXdX6.c h =XdXjXjXjXpXjXtXo.` ` ] } { @.*.O.*.=.=.:.<.:.,.,.i.u.a.t.V.          ",
"          5 # ; . ; , , , < 2 2 e e 7 0XjXjXpXjXjX0Xc M M wXjXpXjXjXpXjX3XS ` ` ' ' } } } *.@.*.=.*.=.:.:.,.,.i.y.a.f.          ",
"          $ * @ $ $ ; , , < < 2 2 w . %XdXjXpXjXjX&XX h 6.dXjXjXpXjXpXdX7.S ` ` ` ' ' @.} } | *.*.=.=.:.2.,.,.,.f.V.N.          ",
"            = @ $ $ ; ; > > < 2 2 2 2 u rXjXpXjXyXQ c q 3XjXpXpXjXpXjXwXF H K W P ` ' ' } { | | @.=.=.*.=.:.:.,.y.i.            ",
"            3 * # $ $ . ; , > < 1 2 e . =XjXpXjX3X7 k Q yXjXpXjXjXpXdX=Xj I K K W o.P ' ` @.} | | *.*.=.=.:.<.<.g.h.            ",
"              * o o $ ; ; ; ; 3 1 1 7 > Q yXjXdX6.7 7 &XjXpXjXjXpXdXuX%.M H F I P P ` ` ' ' ' } | @.@.*.=.*.X.p.<.              ",
"              & = # @ # $ $ - - - , 2 2 . 1XjXwXw p w 0XjXpXjXjXjXpX&Xj G D H H K K P ` ` ' ' O.} @.| ....:.=.-.                ",
"                O * # # $ $ $ - ; > , 2 . 3.dX=XX X 4.pXjXjXdXyX1X3.h M M G D D K I P P ` ` ' ' } } @.@.@.*.-.o.                ",
"                  o # # @ $ $ $ ; . , , 2 < 3.a 0 X 1XjXdXrX=XQ X j n n n M M D F H I K P ` P ' ' ] } | } -.O.                  ",
"                    * o o @ $ $ $ , ; ; < < ; 2 e X 1XwX%Xp X q c n c c n n M M F H H F I W ` ` ' ' } } $.@.                    ",
"                      * o # @ # $ $ ; , > , 2 2 2 2 2 7 X u u p i i k Z c n n M G D H H I K W ` ` ' } $.@.                      ",
"                        * @ # @ @ $ . ; ; > , < < 2 e e w 0 w u p l p c c c n n M G D H H H K P W ` +.@.                        ",
"                          o * # o @ $ $ , ; > , 2 1 2 2 e e w w p p a l l c c n n M G D H H T I I +.O.                          ",
"                            O = @ @ @ $ $ , > > < 1 1 2 2 e e w w w a a i c l c c n M G D F I T / !                             ",
"                              & * * # # $ $ ; , > > 1 1 2 e e e 0 w u p i l l c n c Z M M D ^ I                                 ",
"                                  + = * # # ; > > : 1 < < 2 2 e e t 0 u i p l l c v V M A G !                                   ",
"                                      + 5 = % ; : : > < < < 2 e e e 0 u u i l l l Z ^ M V                                       ",
"                                          3 ; 5 5 5 > : < < < < e 2 t t 0 u f C C u y                                           ",
"                                                3 : : 4 6 6 6 s s s g d d p v y                                                 ",
"                                                            y y y y                                                             ",
"                                                                                                                                ",
"                                                                                                                                "
};
