/* XPM */
static char *f978277b9255484cb10876064a908914aMUMEu90qxpAbOBO[] = {
/* columns rows colors chars-per-pixel */
"32 32 209 2 ",
"   c None",
".  c #E9223B",
"X  c #EA2939",
"o  c #EA2A3C",
"O  c #EB353B",
"+  c #EC3A3F",
"@  c #EC433D",
"#  c #EE543E",
"$  c #E81742",
"%  c #E71D45",
"&  c #EB1843",
"*  c #E81B43",
"=  c #E91D43",
"-  c #E81B44",
";  c #F41846",
":  c #F41D46",
">  c #E92144",
",  c #EA2144",
"<  c #E92545",
"1  c #EA2645",
"2  c #E92747",
"3  c #EA2841",
"4  c #E82947",
"5  c #E92B47",
"6  c #EB2B46",
"7  c #EB2E46",
"8  c #E82648",
"9  c #F32248",
"0  c #F92849",
"q  c #EB3743",
"w  c #EB3247",
"e  c #EB3747",
"r  c #EB3947",
"t  c #EC3C47",
"y  c #EC3D47",
"u  c #EA3148",
"i  c #E93248",
"p  c #EB3448",
"a  c #EA3549",
"s  c #F53149",
"d  c #F73149",
"f  c #F43D4A",
"g  c #FB3A4B",
"h  c #EE4A40",
"j  c #EC4149",
"k  c #EC4348",
"l  c #EC4249",
"z  c #EC434A",
"x  c #EC434B",
"c  c #ED4648",
"v  c #EC4649",
"b  c #EF474B",
"n  c #EE4A49",
"m  c #ED4B4A",
"M  c #ED4F4B",
"N  c #FB434C",
"B  c #EF5746",
"V  c #EE534B",
"C  c #EE534D",
"Z  c #EF564C",
"A  c #ED564E",
"S  c #EF5B4C",
"D  c #EF5C4C",
"F  c #EE5D4E",
"G  c #F05F43",
"H  c #F05E47",
"J  c #FA534E",
"K  c #ED5551",
"L  c #EF5E52",
"P  c #ED515C",
"I  c #EF604D",
"U  c #EF604E",
"Y  c #EF614E",
"T  c #EF644F",
"R  c #EF6B4D",
"E  c #F06946",
"W  c #F0644D",
"Q  c #F0674F",
"!  c #F4664E",
"~  c #F06A4B",
"^  c #F0684E",
"/  c #F1694E",
"(  c #F16D4E",
")  c #F06C4F",
"_  c #F17246",
"`  c #F37E45",
"'  c #F1714F",
"]  c #F2794A",
"[  c #FD6050",
"{  c #F06F57",
"}  c #F86C50",
"|  c #F06E5F",
" . c #F27550",
".. c #F27750",
"X. c #F17652",
"o. c #F07657",
"O. c #F87651",
"+. c #FC7652",
"@. c #F17A51",
"#. c #F27A51",
"$. c #F37F51",
"%. c #EE5D65",
"&. c #F17A60",
"*. c #F0766A",
"=. c #EF6879",
"-. c #F17E7C",
";. c #F38448",
":. c #F48E4E",
">. c #F5914A",
",. c #F59A4E",
"<. c #F38351",
"1. c #F28252",
"2. c #F38551",
"3. c #F38752",
"4. c #F28354",
"5. c #F28554",
"6. c #FF8456",
"7. c #F58A53",
"8. c #F48C52",
"9. c #F58F54",
"0. c #F38D5D",
"q. c #F39055",
"w. c #F39056",
"e. c #F49354",
"r. c #F49455",
"t. c #F59754",
"y. c #FA9055",
"u. c #FF9257",
"i. c #F59E52",
"p. c #F69955",
"a. c #F69B55",
"s. c #F69E56",
"d. c #F69F56",
"f. c #FB9C57",
"g. c #F49758",
"h. c #FF9F59",
"j. c #F6A453",
"k. c #F6A356",
"l. c #F6A357",
"z. c #F6A557",
"x. c #F6A756",
"c. c #F7AA57",
"v. c #F7AB57",
"b. c #F7AC57",
"n. c #F5A558",
"m. c #F6A758",
"M. c #F6A859",
"N. c #F7AB5B",
"B. c #F7AF58",
"V. c #FFAA5B",
"C. c #F8AF58",
"Z. c #F7B058",
"A. c #F7B15B",
"S. c #F8B359",
"D. c #F8B759",
"F. c #FFB35C",
"G. c #F8B95B",
"H. c #FBB85A",
"J. c #F8BB5B",
"K. c #FFB95B",
"L. c #F8BD5B",
"P. c #FFB85E",
"I. c #F8BE5C",
"U. c #F8BE5D",
"Y. c #FFBC5E",
"T. c #F28462",
"R. c #F28773",
"E. c #F49570",
"W. c #F6A567",
"Q. c #F5A574",
"!. c #F8C05D",
"~. c #FFC55E",
"^. c #FFC960",
"/. c #F39581",
"(. c #F29084",
"). c #F39B87",
"_. c #F29093",
"`. c #F5A686",
"'. c #F5B184",
"]. c #F5AE92",
"[. c #F5B698",
"{. c #F39CA3",
"}. c #F4A5A3",
"|. c #F4A9A6",
" X c #F6B6A3",
".X c #F5BBA8",
"XX c #F5AFB2",
"oX c #F6BABE",
"OX c #F7C093",
"+X c #F7C6A2",
"@X c #F7C6AF",
"#X c #F8C9B5",
"$X c #F7C6BF",
"%X c #F7CBB9",
"&X c #F6C7C8",
"*X c #FADCC7",
"=X c #F8D4D1",
"-X c #F8DAD2",
";X c #FAE0DA",
":X c #FAE5DE",
">X c #FAE7E4",
",X c #FBEFE6",
"<X c #FCF1EF",
"1X c #FCF6F4",
"2X c #FEFCFB",
"3X c #FFFEFD",
"4X c #FFFEFE",
"5X c #FEFFFF",
"6X c white",
/* pixels */
"                                                                ",
"                            n.N.N.A.                            ",
"                    q.q.f.V.V.V.F.P.Y.H.H.U.                    ",
"                5.7.u.y.e.a.a.a.x.x.M.Z.K.~.L.!.                ",
"              @.6.<.3.7.9.e.t.a.a.n.n.C.C.S.H.^.!.              ",
"            O.O...<.<.3.7.9.e.t.a.a.x.n.c.B.Z.H.^.L.            ",
"          } ( ' ' _ ] <.3.7.9.e.a.a.a.l.x.c.b.S.S.~.L.          ",
"        Y ! ^ ~ &..XE.] ] <.7.q.e.t.a.l.l.x.b.Z.S.H.~.L.        ",
"      C [ D T Q R >X4X-X].0.` ;.7.e.t.a.a.x.x.c.Z.Z.D.^.        ",
"      J Z D Y Q G E.4X4X4X<X#X`.0.9.t.t.a.a.l.x.M.Z.Z.H.L.      ",
"    C J A Z D F T T >X4X4X4X4X1XQ.` q.:.>.a.l.l.c.M.b.S.~.      ",
"    v m n V Z S I D /.<X4X<X X$.$.[.:X*X'.g.>.,.x.x.c.Z.P.L.    ",
"    N v n V V Z D Y G { E.o.E `.>X4X4X4X4X,X@XQ.,.,.j.c.Z.S.    ",
"  x N x c m V Z Z S W I H ).:X4X4X4X4X2X4X4X4X2X*X[.W.l.v.F.    ",
"  i f r x c n n V Z B | -X4X4X4X2X4X2X4X4X4X4X4X4X4X+Xi.x.P.    ",
"  i s r r j c n n A @ |.4X4X4X4X2X4X4X1X%X;X4X,X+XW.a.a.a.F.M.  ",
"  w s p p y j c M n K -X4X2X4X4X4X2X@X0._ <.E.w.;.9.e.t.a.V.n.  ",
"  5 s w p r y j b @ -.4X4X4X4X2X&X&.E T.#.#.] #.7.9.9.e.t.V.    ",
"  4 0 7 w w r y j q oX4X2X4X&X{ B R.;X XE ] #.<.<.2.9.9.e.h.    ",
"    0 1 6 7 p p q P 1X4X4X&X@ *.-X2X2X&.( ' ' @.#.2.2.9.9.t.    ",
"    = , 1 4 w p o _.4X2X4X-.K 1X4X4X$XH T ( ' ' #.#.2.2.y.9.    ",
"    % : , 1 6 w o {.4X4X>Xc _.4X2X2X(.B R ^ ( ' ..@.<.2.u.5.    ",
"      : = , 1 5 3 P 1X4X}.O =X4X4X>XL F F W Q (  . .@.#.4.      ",
"      - ; = , 1 5 . oX4XP %.4X4X4X|.h F F W W Q ( ( ..6.5.      ",
"        $ & = , 1 . =.&XX XX4X<XXXK n A Z S F Q ^ } O...        ",
"          ; $ = , 1 4 w r oX{.P + m n n C Z H F T } (           ",
"            ; & * , 1 1 7 w X r j k c m n A Z S [ T             ",
"              * ; = , 1 6 6 p p r t j c m V Z [ F               ",
"                - ; : , 1 6 7 w r r y c b J M K                 ",
"                    % * 9 0 0 d s g g f x x                     ",
"                          8 4 i i a                             ",
"                                                                "
};
